<?xml version="1.0" encoding="UTF-8"?><svg xmlns="http://www.w3.org/2000/svg" xmlns:xlink="http://www.w3.org/1999/xlink" contentScriptType="text/ecmascript" width="144" zoomAndPan="magnify" contentStyleType="text/css" viewBox="0 0 144 143.999998" height="143.999998" preserveAspectRatio="xMidYMid meet" version="1.0"><defs><clipPath id="clip-0"><path d="M 11 5 L 124 5 L 124 138 L 11 138 Z M 11 5 " clip-rule="nonzero"/></clipPath><clipPath id="clip-1"><path d="M -3.167969 87.394531 L 87.519531 -3.292969 L 147.445312 56.632812 L 56.757812 147.320312 Z M -3.167969 87.394531 " clip-rule="nonzero"/></clipPath><clipPath id="clip-2"><path d="M -3.167969 87.394531 L 87.519531 -3.292969 L 147.445312 56.632812 L 56.757812 147.320312 Z M -3.167969 87.394531 " clip-rule="nonzero"/></clipPath></defs><rect x="-14.4" width="172.8" fill="rgb(100%, 100%, 100%)" y="-14.4" height="172.799997" fill-opacity="1"/><rect x="-14.4" width="172.8" fill="rgb(100%, 100%, 100%)" y="-14.4" height="172.799997" fill-opacity="1"/><rect x="-14.4" width="172.8" fill="rgb(0%, 0%, 0%)" y="-14.4" height="172.799997" fill-opacity="1"/><g clip-path="url(#clip-0)"><g clip-path="url(#clip-1)"><g clip-path="url(#clip-2)"><path fill="rgb(95.689392%, 27.839661%, 53.329468%)" d="M 75.746094 8.65625 C 75.167969 9.222656 74.625 9.875 74.121094 10.601562 C 74.085938 10.648438 74.054688 10.699219 74.023438 10.746094 L 48.351562 53.800781 C 48.003906 53.6875 47.710938 53.550781 47.335938 53.453125 C 43.476562 52.484375 37.980469 52.683594 32.308594 56.664062 C 30.25 58.109375 28.550781 59.839844 27.226562 61.476562 C 25.90625 63.109375 24.957031 64.636719 24.390625 65.683594 L 13.082031 86.207031 C 8.964844 93.683594 12.359375 102.644531 17.933594 108.222656 L 40.601562 130.886719 C 49.578125 139.867188 64.203125 139.875 73.171875 130.910156 L 93.0625 111.019531 C 99.921875 104.15625 102.121094 96.210938 102.589844 94.25 L 107.523438 89.316406 C 111.496094 85.34375 111.492188 78.820312 107.511719 74.839844 C 106.160156 73.484375 104.5 72.632812 102.757812 72.199219 C 105.9375 68.261719 105.78125 62.488281 102.246094 58.757812 L 119.96875 44.257812 C 120.035156 44.207031 120.097656 44.148438 120.160156 44.089844 C 122.371094 41.875 123.496094 39.152344 123.382812 36.515625 C 123.273438 33.878906 122.015625 31.480469 120.148438 29.613281 C 118.210938 27.675781 115.667969 26.695312 113.171875 26.761719 C 110.675781 26.828125 108.285156 27.800781 106.058594 29.292969 C 106.03125 29.308594 106.003906 29.328125 105.980469 29.34375 L 75.039062 51.839844 L 89.785156 23.65625 C 91.292969 21.082031 92.097656 18.558594 92.058594 16.128906 C 92.019531 13.699219 91.046875 11.414062 89.40625 9.722656 C 89.398438 9.710938 89.390625 9.703125 89.382812 9.695312 L 88.609375 8.925781 C 86.804688 7.074219 84.332031 5.773438 81.582031 5.902344 C 79.523438 6 77.484375 6.957031 75.746094 8.65625 Z M 79.328125 12.292969 C 80.277344 11.328125 81.109375 11.046875 81.835938 11.011719 C 82.808594 10.96875 83.921875 11.445312 84.949219 12.496094 C 84.957031 12.503906 84.960938 12.511719 84.96875 12.515625 L 85.738281 13.285156 C 86.546875 14.121094 86.917969 14.980469 86.9375 16.207031 C 86.957031 17.433594 86.535156 19.074219 85.371094 21.0625 C 85.351562 21.097656 85.328125 21.132812 85.3125 21.171875 L 65.550781 58.921875 C 65.253906 59.363281 65.105469 59.847656 65.109375 60.382812 C 65.109375 60.554688 65.128906 60.722656 65.160156 60.890625 C 65.179688 60.972656 65.199219 61.054688 65.226562 61.136719 C 65.242188 61.191406 65.261719 61.246094 65.28125 61.300781 C 65.296875 61.34375 65.316406 61.386719 65.335938 61.429688 C 65.34375 61.449219 65.351562 61.46875 65.363281 61.488281 C 65.394531 61.554688 65.429688 61.617188 65.464844 61.683594 C 65.5625 61.847656 65.679688 62.003906 65.8125 62.144531 C 65.945312 62.285156 66.089844 62.410156 66.253906 62.515625 C 66.414062 62.625 66.585938 62.710938 66.765625 62.78125 C 66.945312 62.847656 67.132812 62.898438 67.324219 62.921875 C 67.515625 62.949219 67.707031 62.953125 67.902344 62.9375 C 68.09375 62.921875 68.28125 62.882812 68.464844 62.820312 C 68.648438 62.761719 68.824219 62.683594 68.992188 62.582031 C 69.15625 62.484375 69.308594 62.367188 69.449219 62.234375 L 108.929688 33.539062 C 110.578125 32.4375 112.105469 31.90625 113.3125 31.875 C 114.527344 31.84375 115.472656 32.171875 116.535156 33.230469 C 117.667969 34.367188 118.21875 35.585938 118.265625 36.722656 C 118.3125 37.855469 117.929688 39.054688 116.546875 40.449219 L 97.558594 55.980469 C 94.121094 55.035156 90.28125 55.859375 87.601562 58.542969 L 73.953125 72.191406 L 53.664062 56.542969 C 53.664062 56.542969 53.386719 56.328125 52.976562 56.039062 L 78.34375 13.503906 C 78.6875 13.015625 79.015625 12.617188 79.328125 12.292969 Z M 33.078125 62.699219 C 33.757812 62.027344 34.488281 61.390625 35.25 60.859375 C 39.777344 57.679688 43.386719 57.738281 46.089844 58.417969 C 48.792969 59.101562 50.335938 60.425781 50.335938 60.425781 C 50.367188 60.453125 50.402344 60.484375 50.433594 60.511719 L 73.949219 78.644531 C 74.019531 78.699219 74.09375 78.75 74.167969 78.800781 C 77.207031 80.667969 78.140625 84.566406 76.273438 87.601562 C 75.257812 89.25 74.085938 90.117188 72.683594 90.46875 C 71.289062 90.816406 69.5 90.644531 67.261719 89.570312 L 47.378906 77.851562 C 47.210938 77.753906 47.035156 77.675781 46.847656 77.617188 C 46.664062 77.558594 46.472656 77.519531 46.277344 77.507812 C 46.085938 77.492188 45.890625 77.496094 45.699219 77.527344 C 45.507812 77.554688 45.320312 77.605469 45.140625 77.675781 C 44.957031 77.75 44.789062 77.839844 44.628906 77.949219 C 44.46875 78.058594 44.324219 78.1875 44.191406 78.332031 C 44.058594 78.472656 43.945312 78.632812 43.851562 78.800781 C 43.757812 78.96875 43.679688 79.148438 43.625 79.335938 L 41.226562 87.507812 C 41.121094 87.835938 41.085938 88.171875 41.117188 88.511719 C 41.148438 88.855469 41.242188 89.179688 41.40625 89.484375 C 41.566406 89.785156 41.78125 90.046875 42.046875 90.265625 C 42.3125 90.484375 42.613281 90.640625 42.941406 90.738281 C 43.273438 90.835938 43.609375 90.867188 43.949219 90.828125 C 44.292969 90.789062 44.613281 90.6875 44.914062 90.519531 C 45.214844 90.351562 45.46875 90.132812 45.683594 89.859375 C 45.894531 89.589844 46.042969 89.289062 46.132812 88.957031 L 47.617188 83.925781 L 48.144531 84.234375 C 48.5625 85.648438 51.148438 95.59375 43.910156 105.886719 C 43.714844 106.164062 43.582031 106.46875 43.507812 106.800781 C 43.433594 107.132812 43.425781 107.464844 43.484375 107.800781 C 43.542969 108.132812 43.664062 108.445312 43.84375 108.730469 C 44.027344 109.019531 44.257812 109.261719 44.535156 109.457031 C 44.8125 109.652344 45.117188 109.785156 45.449219 109.859375 C 45.78125 109.933594 46.113281 109.941406 46.449219 109.882812 C 46.78125 109.824219 47.09375 109.707031 47.378906 109.523438 C 47.664062 109.34375 47.90625 109.113281 48.101562 108.835938 C 53.6875 100.886719 54.226562 92.75 53.804688 87.570312 L 64.839844 94.078125 C 64.898438 94.113281 64.960938 94.144531 65.023438 94.175781 C 68.078125 95.648438 71.15625 96.128906 73.941406 95.429688 C 75.238281 95.101562 76.425781 94.5 77.496094 93.710938 C 77.207031 96.664062 78.144531 99.71875 80.390625 101.964844 C 83.671875 105.246094 88.667969 105.777344 92.554688 103.648438 C 91.652344 104.914062 90.652344 106.183594 89.441406 107.398438 L 69.550781 127.289062 C 62.539062 134.300781 51.238281 134.292969 44.21875 127.273438 L 21.550781 104.605469 C 17.199219 100.253906 14.925781 93.484375 17.570312 88.679688 L 28.875 68.15625 C 28.878906 68.152344 28.878906 68.144531 28.882812 68.136719 C 29.457031 67.074219 31.039062 64.714844 33.078125 62.699219 Z M 78.035156 75.351562 L 91.21875 62.164062 C 93.238281 60.144531 96.4375 60.148438 98.457031 62.167969 C 100.480469 64.191406 100.480469 67.386719 98.460938 69.40625 L 93.039062 74.832031 L 82.21875 85.652344 C 82.675781 81.800781 81.148438 77.886719 78.035156 75.351562 Z M 84 91.109375 L 94.851562 80.261719 L 96.660156 78.453125 C 98.679688 76.433594 101.875 76.433594 103.894531 78.457031 C 105.917969 80.480469 105.921875 83.675781 103.902344 85.695312 L 98.714844 90.878906 C 98.546875 91.011719 98.394531 91.160156 98.265625 91.332031 L 91.242188 98.351562 C 89.222656 100.371094 86.027344 100.371094 84.007812 98.347656 C 81.984375 96.324219 81.980469 93.128906 84 91.109375 Z M 84 91.109375 " fill-opacity="1" fill-rule="nonzero"/></g></g></g></svg>